<svg width="16" height="16" viewBox="0 0 16 16" fill="none" xmlns="http://www.w3.org/2000/svg">
<path d="M7.86683 7.26667C6.3535 6.87333 5.86683 6.46667 5.86683 5.83333C5.86683 5.10667 6.54016 4.6 7.66683 4.6C8.6135 4.6 9.08683 4.96 9.26016 5.53333C9.34016 5.8 9.56016 6 9.84016 6H10.0402C10.4802 6 10.7935 5.56667 10.6402 5.15333C10.3602 4.36667 9.70683 3.71333 8.66683 3.46V3C8.66683 2.44667 8.22016 2 7.66683 2C7.1135 2 6.66683 2.44667 6.66683 3V3.44C5.3735 3.72 4.3335 4.56 4.3335 5.84667C4.3335 7.38667 5.60683 8.15333 7.46683 8.6C9.1335 9 9.46683 9.58667 9.46683 10.2067C9.46683 10.6667 9.14016 11.4 7.66683 11.4C6.56683 11.4 6.00016 11.0067 5.78016 10.4467C5.68016 10.1867 5.4535 10 5.18016 10H4.9935C4.54683 10 4.2335 10.4533 4.40016 10.8667C4.78016 11.7933 5.66683 12.34 6.66683 12.5533V13C6.66683 13.5533 7.1135 14 7.66683 14C8.22016 14 8.66683 13.5533 8.66683 13V12.5667C9.96683 12.32 11.0002 11.5667 11.0002 10.2C11.0002 8.30667 9.38016 7.66 7.86683 7.26667Z" fill="#95999C"/>
</svg>
