<svg width="40" height="40" viewBox="0 0 40 40" fill="none" xmlns="http://www.w3.org/2000/svg">
<path d="M25.8335 18.3333C27.2142 18.3333 28.3335 17.214 28.3335 15.8333C28.3335 14.4525 27.2142 13.3333 25.8335 13.3333C24.4528 13.3333 23.3335 14.4525 23.3335 15.8333C23.3335 17.214 24.4528 18.3333 25.8335 18.3333Z" fill="white"/>
<path d="M14.1665 18.3333C15.5472 18.3333 16.6665 17.214 16.6665 15.8333C16.6665 14.4525 15.5472 13.3333 14.1665 13.3333C12.7858 13.3333 11.6665 14.4525 11.6665 15.8333C11.6665 17.214 12.7858 18.3333 14.1665 18.3333Z" fill="white"/>
<path d="M19.9998 29.9999C23.7998 29.9999 27.0332 27.2333 28.3332 23.3333H11.6665C12.9665 27.2333 16.1998 29.9999 19.9998 29.9999Z" fill="white"/>
<path d="M19.9835 3.33325C10.7835 3.33325 3.3335 10.7999 3.3335 19.9999C3.3335 29.1999 10.7835 36.6666 19.9835 36.6666C29.2002 36.6666 36.6668 29.1999 36.6668 19.9999C36.6668 10.7999 29.2002 3.33325 19.9835 3.33325ZM20.0002 33.3333C12.6335 33.3333 6.66683 27.3666 6.66683 19.9999C6.66683 12.6333 12.6335 6.66659 20.0002 6.66659C27.3668 6.66659 33.3335 12.6333 33.3335 19.9999C33.3335 27.3666 27.3668 33.3333 20.0002 33.3333Z" fill="white"/>
</svg>
