<svg width="24" height="35" viewBox="0 0 24 35" fill="none" xmlns="http://www.w3.org/2000/svg">
<path d="M12.75 31.4147C12.75 26.1621 18.7725 21.6243 20.49 19.9513C22.6575 17.84 24 14.9178 24 11.6888C24 5.23074 18.6375 0.0073055 12 0C5.3625 0.0073055 0 5.23074 0 11.6888C0 14.9178 1.3425 17.84 3.51 19.9513C5.2275 21.6243 11.25 26.1621 11.25 31.4147C11.25 31.4147 11.0742 34.3359 12 34.3359C12.9258 34.3359 12.75 31.4147 12.75 31.4147Z" fill="#2C343A"/>
<path fill-rule="evenodd" clip-rule="evenodd" d="M7.05905 6.88215C7.05905 6.4923 7.37509 6.17627 7.76494 6.17627C8.15478 6.17627 8.47082 6.4923 8.47082 6.88215V7.54882H7.05905V6.88215ZM7.35156 7.54883C6.79928 7.54883 6.35156 7.99654 6.35156 8.54883V12.039C6.35156 12.5898 6.79689 13.0366 7.34715 13.039H7.05905V14.4116H5.62768C5.24866 14.4116 4.94141 14.7188 4.94141 15.0978C4.94141 15.4769 5.24866 15.7841 5.62768 15.7841H18.3728C18.7518 15.7841 19.0591 15.4769 19.0591 15.0978C19.0591 14.7188 18.7518 14.4116 18.3728 14.4116H16.943V13.0391H15.5312V14.4116H8.47082V13.039H16.6457C17.198 13.039 17.6457 12.5913 17.6457 12.039V8.54883C17.6457 7.99654 17.198 7.54883 16.6457 7.54883H7.35156ZM6.35156 15.7842H7.76333V17.8234C7.76333 18.2132 7.44729 18.5293 7.05744 18.5293C6.6676 18.5293 6.35156 18.2132 6.35156 17.8234V15.7842ZM17.6461 15.7842H16.2344V17.8234C16.2344 18.2132 16.5504 18.5293 16.9403 18.5293C17.3301 18.5293 17.6461 18.2132 17.6461 17.8234V15.7842ZM16.2371 6.17627C15.8473 6.17627 15.5312 6.4923 15.5312 6.88215V7.54882H16.943V6.88215C16.943 6.4923 16.627 6.17627 16.2371 6.17627Z" fill="white"/>
</svg>
