<svg width="24" height="35" viewBox="0 0 24 35" fill="none" xmlns="http://www.w3.org/2000/svg">
<path d="M12.75 31.4147C12.75 26.1621 18.7725 21.6243 20.49 19.9513C22.6575 17.84 24 14.9178 24 11.6888C24 5.23074 18.6375 0.0073055 12 0C5.3625 0.0073055 0 5.23074 0 11.6888C0 14.9178 1.3425 17.84 3.51 19.9513C5.2275 21.6243 11.25 26.1621 11.25 31.4147C11.25 31.4147 11.0742 34.3359 12 34.3359C12.9258 34.3359 12.75 31.4147 12.75 31.4147Z" fill="#2C343A"/>
<path fill-rule="evenodd" clip-rule="evenodd" d="M4.94141 10.9805C4.94141 10.6014 5.24866 10.2942 5.62768 10.2942H18.3728C18.7518 10.2942 19.0591 10.6014 19.0591 10.9805C19.0591 11.3595 18.7518 11.6667 18.3728 11.6667H8.47082V14.3922L8.47055 14.4119H8.48882C8.86784 14.4119 9.17509 14.7191 9.17509 15.0981C9.17509 15.4772 8.86784 15.7844 8.48882 15.7844H7.03784C6.65882 15.7844 6.35156 15.4772 6.35156 15.0981C6.35156 14.7191 6.65882 14.4119 7.03784 14.4119H7.05932L7.05905 14.3922V11.6667H5.62768C5.24866 11.6667 4.94141 11.3595 4.94141 10.9805ZM15.51 14.4118C15.131 14.4118 14.8238 14.7191 14.8238 15.0981C14.8238 15.4771 15.131 15.7844 15.51 15.7844H16.961C17.34 15.7844 17.6473 15.4771 17.6473 15.0981C17.6473 14.7191 17.34 14.4118 16.961 14.4118H16.9427C16.9429 14.4053 16.943 14.3988 16.943 14.3922V11.6667H15.5312V14.3922C15.5312 14.3988 15.5313 14.4053 15.5315 14.4118H15.51Z" fill="white"/>
</svg>
