<svg width="24" height="35" viewBox="0 0 24 35" fill="none" xmlns="http://www.w3.org/2000/svg">
<path d="M12.75 31.4147C12.75 26.1621 18.7725 21.6243 20.49 19.9513C22.6575 17.84 24 14.9178 24 11.6888C24 5.23074 18.6375 0.0073055 12 0C5.3625 0.0073055 0 5.23074 0 11.6888C0 14.9178 1.3425 17.84 3.51 19.9513C5.2275 21.6243 11.25 26.1621 11.25 31.4147C11.25 31.4147 11.0742 34.3359 12 34.3359C12.9258 34.3359 12.75 31.4147 12.75 31.4147Z" fill="#2C343A"/>
<path d="M14.8242 14.4119H16.6477C17.2 14.4119 17.6477 14.8596 17.6477 15.4119V16.157C17.6477 16.7092 17.2 17.157 16.6477 17.157H14.8242V14.4119Z" fill="white"/>
<rect x="12" y="14.4119" width="2.82353" height="2.7451" fill="white"/>
<rect x="9.17969" y="14.4119" width="2.82353" height="2.7451" fill="white"/>
<path d="M6.35498 14.4119H9.17851V17.157H7.35498C6.8027 17.157 6.35498 16.7092 6.35498 16.157V14.4119Z" fill="white"/>
<rect x="6.35498" y="11.6667" width="2.82353" height="2.7451" fill="white"/>
<rect x="9.17969" y="11.6667" width="2.82353" height="2.7451" fill="white"/>
<rect x="6.35498" y="8.92163" width="2.82353" height="2.7451" fill="white"/>
<path d="M12 11.6667H13.8235C14.3758 11.6667 14.8235 12.1145 14.8235 12.6667V14.4118H12V11.6667Z" fill="white"/>
<path d="M9.17969 8.92163H11.0032C11.5555 8.92163 12.0032 9.36935 12.0032 9.92163V11.6667H9.17969V8.92163Z" fill="white"/>
<path d="M6.35498 6.17651H8.17851C8.7308 6.17651 9.17851 6.62423 9.17851 7.17651V8.92161H6.35498V6.17651Z" fill="white"/>
</svg>
