<svg width="24" height="35" viewBox="0 0 24 35" fill="none" xmlns="http://www.w3.org/2000/svg">
<path d="M12.75 31.4147C12.75 26.1621 18.7725 21.6243 20.49 19.9513C22.6575 17.84 24 14.9178 24 11.6888C24 5.23074 18.6375 0.0073055 12 0C5.3625 0.0073055 0 5.23074 0 11.6888C0 14.9178 1.3425 17.84 3.51 19.9513C5.2275 21.6243 11.25 26.1621 11.25 31.4147C11.25 31.4147 11.0742 34.3359 12 34.3359C12.9258 34.3359 12.75 31.4147 12.75 31.4147Z" fill="#2C343A"/>
<path d="M6.64893 17.1567H16.5565C17.5025 17.1567 17.9196 15.9648 17.1801 15.3749L7.27253 7.47146C6.61755 6.94896 5.64893 7.41533 5.64893 8.25319V16.1567C5.64893 16.7089 6.09664 17.1567 6.64893 17.1567Z" fill="white"/>
</svg>
